<svg xmlns="http://www.w3.org/2000/svg" viewBox="0 0 760 470" role="img" aria-labelledby="title desc">
  <title id="title">TLBlur-protected RSA key recovery concept</title>
  <desc id="desc">A simplified conceptual diagram showing passive uncore monitoring recovering an RSA key despite TLBlur-oriented protection.</desc>
  <rect width="760" height="470" rx="16" fill="#fffaf1"/>
  <g stroke="#d8ccba" stroke-width="1">
    <path d="M70 86H690M70 146H690M70 206H690M70 266H690M70 326H690"/>
    <path d="M140 58V356M260 58V356M380 58V356M500 58V356M620 58V356"/>
  </g>
  <rect x="68" y="106" width="176" height="190" rx="12" fill="#f8f2e8" stroke="#202124" stroke-width="2"/>
  <text x="156" y="152" fill="#202124" font-family="Georgia, serif" font-size="25" font-weight="700" text-anchor="middle">TLBlur</text>
  <text x="156" y="184" fill="#5d5c58" font-family="Arial, sans-serif" font-size="14" text-anchor="middle">AEX-aware defense</text>
  <g fill="none" stroke="#8b2522" stroke-width="3" stroke-linecap="round">
    <path d="M104 226H208"/>
    <path d="M104 250H208"/>
    <path d="M104 274H208"/>
  </g>
  <rect x="292" y="106" width="176" height="190" rx="12" fill="#f8f2e8" stroke="#c7443e" stroke-width="2"/>
  <text x="380" y="152" fill="#202124" font-family="Georgia, serif" font-size="25" font-weight="700" text-anchor="middle">Uncore</text>
  <text x="380" y="184" fill="#5d5c58" font-family="Arial, sans-serif" font-size="14" text-anchor="middle">M2M PKT_MATCH</text>
  <g fill="#c7443e">
    <circle cx="333" cy="243" r="8"/>
    <circle cx="380" cy="217" r="8"/>
    <circle cx="427" cy="252" r="8"/>
  </g>
  <path d="M333 243C350 204 365 255 380 217S410 286 427 252" fill="none" stroke="#2d5f7f" stroke-width="4" stroke-linecap="round"/>
  <rect x="516" y="106" width="176" height="190" rx="12" fill="#f8f2e8" stroke="#202124" stroke-width="2"/>
  <text x="604" y="152" fill="#202124" font-family="Georgia, serif" font-size="25" font-weight="700" text-anchor="middle">RSA</text>
  <text x="604" y="184" fill="#5d5c58" font-family="Arial, sans-serif" font-size="14" text-anchor="middle">private key</text>
  <g fill="#dfaa36">
    <circle cx="566" cy="246" r="10"/>
    <rect x="574" y="240" width="56" height="12" rx="6"/>
    <rect x="620" y="252" width="10" height="18" rx="2"/>
    <rect x="638" y="252" width="10" height="18" rx="2"/>
  </g>
  <path d="M244 202H292M468 202H516" fill="none" stroke="#c7443e" stroke-width="4" stroke-linecap="round"/>
  <path d="M274 188L292 202L274 216M498 188L516 202L498 216" fill="none" stroke="#c7443e" stroke-width="4" stroke-linecap="round" stroke-linejoin="round"/>
  <text x="380" y="385" fill="#202124" font-family="Georgia, serif" font-size="24" font-weight="700" text-anchor="middle">Passive observation, single decryption, no AEX trigger</text>
  <text x="380" y="420" fill="#5d5c58" font-family="Arial, sans-serif" font-size="15" text-anchor="middle">A high-level illustration for the public website, not an operational exploit guide.</text>
</svg>
