<svg xmlns="http://www.w3.org/2000/svg" viewBox="0 0 520 520" role="img" aria-labelledby="title desc">
  <title id="title">UncoreBleed icon</title>
  <desc id="desc">A stylized processor chip with a leaking uncore signal and a red drop.</desc>
  <rect width="520" height="520" rx="36" fill="#fffaf1"/>
  <g fill="#202124">
    <rect x="122" y="90" width="18" height="64" rx="5"/>
    <rect x="174" y="90" width="18" height="64" rx="5"/>
    <rect x="226" y="90" width="18" height="64" rx="5"/>
    <rect x="278" y="90" width="18" height="64" rx="5"/>
    <rect x="330" y="90" width="18" height="64" rx="5"/>
    <rect x="382" y="90" width="18" height="64" rx="5"/>
    <rect x="122" y="366" width="18" height="64" rx="5"/>
    <rect x="174" y="366" width="18" height="64" rx="5"/>
    <rect x="226" y="366" width="18" height="64" rx="5"/>
    <rect x="278" y="366" width="18" height="64" rx="5"/>
    <rect x="330" y="366" width="18" height="64" rx="5"/>
    <rect x="382" y="366" width="18" height="64" rx="5"/>
    <rect x="90" y="122" width="64" height="18" rx="5"/>
    <rect x="90" y="174" width="64" height="18" rx="5"/>
    <rect x="90" y="226" width="64" height="18" rx="5"/>
    <rect x="90" y="278" width="64" height="18" rx="5"/>
    <rect x="90" y="330" width="64" height="18" rx="5"/>
    <rect x="366" y="122" width="64" height="18" rx="5"/>
    <rect x="366" y="174" width="64" height="18" rx="5"/>
    <rect x="366" y="226" width="64" height="18" rx="5"/>
    <rect x="366" y="278" width="64" height="18" rx="5"/>
    <rect x="366" y="330" width="64" height="18" rx="5"/>
  </g>
  <rect x="144" y="144" width="232" height="232" rx="30" fill="#202124"/>
  <rect x="178" y="178" width="164" height="164" rx="22" fill="#f8f2e8"/>
  <circle cx="260" cy="260" r="58" fill="#2d5f7f"/>
  <circle cx="260" cy="260" r="31" fill="#fffaf1"/>
  <path d="M202 260C220 215 240 305 260 260S302 215 320 260" fill="none" stroke="#c7443e" stroke-width="16" stroke-linecap="round"/>
  <path d="M333 330C333 330 379 376 379 408C379 435 358 454 333 454C308 454 287 435 287 408C287 376 333 330 333 330Z" fill="#c7443e"/>
  <circle cx="322" cy="401" r="13" fill="#fffaf1" opacity=".42"/>
  <text x="260" y="80" text-anchor="middle" fill="#8b2522" font-family="Georgia, serif" font-size="31" font-weight="700">64 B</text>
</svg>
